<svg width="71" height="53" viewBox="0 0 71 53" fill="none" xmlns="http://www.w3.org/2000/svg">
<path d="M16.9432 53C12.3174 53 8.33712 51.2859 5.00227 47.8576C1.66742 44.4293 0 40.3375 0 35.5822C0 31.2692 1.33125 27.4677 3.99375 24.1776C6.65625 20.8876 10.0852 18.9108 14.2807 18.2473C15.3564 12.8837 17.8845 8.50156 21.8648 5.10094C25.8451 1.70031 30.4439 0 35.6614 0C41.7394 0 46.8358 2.25326 50.9506 6.75978C55.0653 11.2663 57.1227 16.6714 57.1227 22.975V24.9656C60.9955 24.855 64.2765 26.1406 66.9659 28.8224C69.6553 31.5042 71 34.891 71 38.9828C71 42.7981 69.6553 46.0882 66.9659 48.8529C64.2765 51.6176 61.0761 53 57.3648 53H37.9205C36.6295 53 35.5 52.5023 34.5318 51.507C33.5636 50.5117 33.0795 49.3505 33.0795 48.0235V26.6244L26.383 33.5086L22.9136 29.9421L35.5 17.0031L48.0864 29.9421L44.617 33.5086L37.9205 26.6244V48.0235H57.3648C59.7852 48.0235 61.8561 47.1388 63.5773 45.3693C65.2985 43.5999 66.1591 41.471 66.1591 38.9828C66.1591 36.4945 65.2985 34.3657 63.5773 32.5962C61.8561 30.8268 59.7852 29.9421 57.3648 29.9421H52.2818V22.975C52.2818 18.0537 50.6547 13.8237 47.4006 10.2848C44.1464 6.74596 40.1258 4.97653 35.3386 4.97653C30.5515 4.97653 26.5174 6.74596 23.2364 10.2848C19.9553 13.8237 18.3148 18.0537 18.3148 22.975H16.7818C13.447 22.975 10.6231 24.1776 8.31023 26.5829C5.99735 28.9883 4.84091 31.9604 4.84091 35.4992C4.84091 38.9275 6.02424 41.8719 8.39091 44.3326C10.7576 46.7932 13.6083 48.0235 16.9432 48.0235H28.2386V53H16.9432Z" fill="white"/>
</svg>
