<svg width="25" height="25" viewBox="0 0 22 19" fill="none" xmlns="http://www.w3.org/2000/svg">
<path d="M4.62715 5.35V19H0.902148V5.35H4.62715ZM2.77715 -1.2517e-06C3.32715 -1.2517e-06 3.80215 0.133332 4.20215 0.4C4.60215 0.649999 4.80215 1.125 4.80215 1.825C4.80215 2.50833 4.60215 2.98333 4.20215 3.25C3.80215 3.51667 3.32715 3.65 2.77715 3.65C2.21048 3.65 1.72715 3.51667 1.32715 3.25C0.943815 2.98333 0.752149 2.50833 0.752149 1.825C0.752149 1.125 0.943815 0.649999 1.32715 0.4C1.72715 0.133332 2.21048 -1.2517e-06 2.77715 -1.2517e-06ZM16.2693 5.1C17.736 5.1 18.911 5.5 19.7943 6.3C20.6777 7.08333 21.1193 8.35 21.1193 10.1V19H17.3943V11.025C17.3943 10.0417 17.2193 9.30833 16.8693 8.825C16.5193 8.325 15.961 8.075 15.1943 8.075C14.061 8.075 13.286 8.46667 12.8693 9.25C12.4527 10.0167 12.2443 11.125 12.2443 12.575V19H8.51934V5.35H11.3693L11.8693 7.1H12.0693C12.3693 6.63333 12.736 6.25833 13.1693 5.975C13.6027 5.675 14.086 5.45833 14.6193 5.325C15.1527 5.175 15.7027 5.1 16.2693 5.1Z" fill="white"/>
</svg>
