<svg width="25" height="25" viewBox="0 0 19 19" fill="none" xmlns="http://www.w3.org/2000/svg">
<path d="M5.61364 0C2.5281 0 0 2.5281 0 5.61364V13.3864C0 16.4719 2.5281 19 5.61364 19H13.3864C16.4719 19 19 16.4719 19 13.3864V5.61364C19 2.5281 16.4719 0 13.3864 0H5.61364ZM5.61364 2.11111H13.3864C16.0008 2.11111 16.8636 3.16667 17 5.61364V13.3864C16.5 15.8333 15.5 16.8889 13 16.8889H5.61364C3.5 16.8889 2.5 15.8333 2 13.3864V5.80556C2 2.63889 4 2.11111 5.61364 2.11111ZM14.5 3.16667C14.025 3.16667 13.5 3.74722 13.5 4.22222C13.5 4.69722 14.025 5.27778 14.5 5.27778C14.975 5.27778 15.5 4.69722 15.5 4.22222C15.5 3.74722 14.975 3.16667 14.5 3.16667ZM9.5 4.75C6.88946 4.75 4.75 6.88946 4.75 9.5C4.75 12.1105 6.88946 14.25 9.5 14.25C12.1105 14.25 14.25 12.1105 14.25 9.5C14.25 6.88946 12.1105 4.75 9.5 4.75ZM9.5 5.80556C11.6395 5.80556 13 7.36054 13 9.5C13 11.6395 11.6395 13.1944 9.5 13.1944C7.36054 13.1944 6 11.6395 6 9.5C6 7.36054 7.36054 5.80556 9.5 5.80556Z" fill="#CDCDCD"/>
</svg>
