<svg width="29" height="23" viewBox="0 0 29 23" fill="none" xmlns="http://www.w3.org/2000/svg">
<path d="M2.175 23C1.595 23 1.0875 22.7844 0.6525 22.3531C0.2175 21.9219 0 21.4188 0 20.8438V2.15625C0 1.58125 0.2175 1.07812 0.6525 0.646875C1.0875 0.215625 1.595 0 2.175 0H26.825C27.405 0 27.9125 0.215625 28.3475 0.646875C28.7825 1.07812 29 1.58125 29 2.15625V20.8438C29 21.4188 28.7825 21.9219 28.3475 22.3531C27.9125 22.7844 27.405 23 26.825 23H2.175ZM14.5 12.1469L2.175 4.13281V20.8438H26.825V4.13281L14.5 12.1469ZM14.5 9.99062L26.68 2.15625H2.35625L14.5 9.99062ZM2.175 4.13281V2.15625V20.8438V4.13281Z" fill="white"/>
</svg>
