<svg width="71" height="53" viewBox="0 0 42 60" fill="none" xmlns="http://www.w3.org/2000/svg">
<path d="M4.5 60C3.3 60 2.25 59.5909 1.35 58.7727C0.449999 57.9545 0 57 0 55.9091V4.09091C0 3 0.449999 2.04545 1.35 1.22727C2.25 0.409091 3.3 0 4.5 0H37.5C38.7 0 39.75 0.409091 40.65 1.22727C41.55 2.04545 42 3 42 4.09091V55.9091C42 57 41.55 57.9545 40.65 58.7727C39.75 59.5909 38.7 60 37.5 60H4.5ZM4.5 53.8636V55.9091H37.5V53.8636H4.5ZM4.5 49.7727H37.5V10.2273H4.5V49.7727ZM4.5 6.13636H37.5V4.09091H4.5V6.13636Z" fill="white"/>
</svg>
