<svg width="71" height="53" viewBox="0 0 71 53" fill="none" xmlns="http://www.w3.org/2000/svg">
<path d="M0 53V44.9775C0 42.986 0.4819 41.1795 1.4457 39.558C2.4095 37.9364 3.74811 36.7273 5.46154 35.9308C9.37029 34.11 12.8908 32.8014 16.0232 32.0048C19.1555 31.2083 22.3816 30.81 25.7014 30.81C29.0211 30.81 32.2338 31.2083 35.3394 32.0048C38.4449 32.8014 41.9521 34.11 45.8609 35.9308C47.5743 36.7273 48.9263 37.9364 49.9169 39.558C50.9074 41.1795 51.4027 42.986 51.4027 44.9775V53H0ZM56.2217 53V44.9775C56.2217 41.3929 55.365 38.4485 53.6516 36.1441C51.9382 33.8398 49.6893 31.9764 46.905 30.5539C50.5996 31.0091 54.0799 31.6777 57.3462 32.5596C60.6124 33.4415 63.2628 34.4514 65.2975 35.5894C67.0645 36.6704 68.4566 38.0075 69.474 39.6006C70.4913 41.1938 71 42.986 71 44.9775V53H56.2217ZM25.7014 25.6039C22.1674 25.6039 19.276 24.409 17.0272 22.0193C14.7783 19.6296 13.6538 16.5572 13.6538 12.8019C13.6538 9.0467 14.7783 5.97424 17.0272 3.58454C19.276 1.19485 22.1674 0 25.7014 0C29.2353 0 32.1267 1.19485 34.3756 3.58454C36.6244 5.97424 37.7489 9.0467 37.7489 12.8019C37.7489 16.5572 36.6244 19.6296 34.3756 22.0193C32.1267 24.409 29.2353 25.6039 25.7014 25.6039ZM54.6154 12.8019C54.6154 16.5572 53.491 19.6296 51.2421 22.0193C48.9932 24.409 46.1018 25.6039 42.5679 25.6039C41.9789 25.6039 41.323 25.5612 40.6001 25.4758C39.8773 25.3905 39.2213 25.234 38.6324 25.0064C39.9174 23.584 40.8946 21.8344 41.5639 19.7576C42.2332 17.6809 42.5679 15.3623 42.5679 12.8019C42.5679 10.2415 42.2332 7.97987 41.5639 6.01691C40.8946 4.05395 39.9174 2.24745 38.6324 0.597424C39.2213 0.426732 39.8773 0.284488 40.6001 0.170693C41.323 0.0568981 41.9789 0 42.5679 0C46.1018 0 48.9932 1.19485 51.2421 3.58454C53.491 5.97424 54.6154 9.0467 54.6154 12.8019ZM4.819 47.8792H46.5837V44.9775C46.5837 44.0671 46.3294 43.1852 45.8207 42.3317C45.312 41.4783 44.6829 40.8808 43.9333 40.5395C40.0781 38.7187 36.8386 37.4954 34.2149 36.8696C31.5913 36.2437 28.7534 35.9308 25.7014 35.9308C22.6493 35.9308 19.7981 36.2437 17.1476 36.8696C14.4972 37.4954 11.2443 38.7187 7.38914 40.5395C6.63952 40.8808 6.02376 41.4783 5.54186 42.3317C5.05995 43.1852 4.819 44.0671 4.819 44.9775V47.8792ZM25.7014 20.4831C27.7896 20.4831 29.5164 19.7576 30.8818 18.3068C32.2472 16.8559 32.9299 15.0209 32.9299 12.8019C32.9299 10.5829 32.2472 8.74799 30.8818 7.2971C29.5164 5.84622 27.7896 5.12077 25.7014 5.12077C23.6131 5.12077 21.8863 5.84622 20.5209 7.2971C19.1555 8.74799 18.4729 10.5829 18.4729 12.8019C18.4729 15.0209 19.1555 16.8559 20.5209 18.3068C21.8863 19.7576 23.6131 20.4831 25.7014 20.4831Z" fill="white"/>
</svg>
