<svg width="71" height="53" viewBox="0 0 71 53" fill="none" xmlns="http://www.w3.org/2000/svg">
<path d="M0 53V45.5469H7.6325V4.96875C7.6325 3.58854 8.15021 2.41536 9.18563 1.44922C10.221 0.483073 11.4783 0 12.9575 0H67.9825V4.96875H12.9575V45.5469H33.725V53H0ZM42.5112 53C41.5054 53 40.6771 52.6273 40.0262 51.882C39.3754 51.1367 39.05 50.2948 39.05 49.3562V13.1672C39.05 12.2286 39.3754 11.4557 40.0262 10.8484C40.6771 10.2411 41.5054 9.9375 42.5112 9.9375H66.6512C67.7754 9.9375 68.7812 10.2273 69.6687 10.807C70.5563 11.3867 71 12.1734 71 13.1672V49.3562C71 50.4052 70.571 51.2747 69.7131 51.9648C68.8552 52.6549 67.8346 53 66.6512 53H42.5112ZM44.375 45.5469H65.675V14.9062H44.375V45.5469Z" fill="white"/>
</svg>
