<svg width="54" height="10" viewBox="0 0 54 10" fill="none" xmlns="http://www.w3.org/2000/svg">
<path d="M8.54403 4.63636C8.54403 5.58807 8.36364 6.39773 8.00284 7.06534C7.64489 7.73295 7.15625 8.2429 6.53693 8.59517C5.92045 8.9446 5.22727 9.11932 4.45739 9.11932C3.68182 9.11932 2.9858 8.94318 2.36932 8.59091C1.75284 8.23864 1.26563 7.72869 0.907671 7.06108C0.549716 6.39347 0.370739 5.58523 0.370739 4.63636C0.370739 3.68466 0.549716 2.875 0.907671 2.20739C1.26563 1.53977 1.75284 1.03125 2.36932 0.681818C2.9858 0.329545 3.68182 0.153409 4.45739 0.153409C5.22727 0.153409 5.92045 0.329545 6.53693 0.681818C7.15625 1.03125 7.64489 1.53977 8.00284 2.20739C8.36364 2.875 8.54403 3.68466 8.54403 4.63636ZM6.6733 4.63636C6.6733 4.01989 6.58097 3.5 6.39631 3.0767C6.21449 2.65341 5.95739 2.33239 5.625 2.11364C5.29261 1.89489 4.90341 1.78551 4.45739 1.78551C4.01136 1.78551 3.62216 1.89489 3.28977 2.11364C2.95739 2.33239 2.69886 2.65341 2.5142 3.0767C2.33239 3.5 2.24148 4.01989 2.24148 4.63636C2.24148 5.25284 2.33239 5.77273 2.5142 6.19602C2.69886 6.61932 2.95739 6.94034 3.28977 7.15909C3.62216 7.37784 4.01136 7.48722 4.45739 7.48722C4.90341 7.48722 5.29261 7.37784 5.625 7.15909C5.95739 6.94034 6.21449 6.61932 6.39631 6.19602C6.58097 5.77273 6.6733 5.25284 6.6733 4.63636ZM9.91087 9V0.272727H11.756V3.87358H15.5018V0.272727H17.3427V9H15.5018V5.39489H11.756V9H9.91087ZM18.864 0.272727H21.1396L23.543 6.13636H23.6452L26.0487 0.272727H28.3242V9H26.5344V3.3196H26.462L24.2035 8.95739H22.9847L20.7262 3.2983H20.6538V9H18.864V0.272727ZM29.8445 9V0.272727H35.7251V1.79403H31.6896V3.87358H35.4226V5.39489H31.6896V7.47869H35.7422V9H29.8445ZM44.4918 0.272727V9H42.8981L39.1012 3.5071H39.0373V9H37.1921V0.272727H38.8114L42.5785 5.76136H42.6552V0.272727H44.4918ZM47.5206 9H45.5433L48.5561 0.272727H50.9339L53.9425 9H51.9652L49.7791 2.26705H49.7109L47.5206 9ZM47.397 5.5696H52.0675V7.00994H47.397V5.5696Z" fill="#f9faf8"/>
</svg>
