<svg width="50" height="50" viewBox="0 0 50 50" fill="none" xmlns="http://www.w3.org/2000/svg">
<path d="M37.7246 15.625H32.8125C31.084 15.625 29.6875 17.0215 29.6875 18.75C29.6875 20.4785 31.084 21.875 32.8125 21.875H45.3125C47.041 21.875 48.4375 20.4785 48.4375 18.75V6.25C48.4375 4.52148 47.041 3.125 45.3125 3.125C43.584 3.125 42.1875 4.52148 42.1875 6.25V11.25L40.4687 9.53125C31.9238 0.986328 18.0762 0.986328 9.53125 9.53125C0.986328 18.0762 0.986328 31.9238 9.53125 40.4687C18.0762 49.0137 31.9238 49.0137 40.4687 40.4687C41.6895 39.248 41.6895 37.2656 40.4687 36.0449C39.248 34.8242 37.2656 34.8242 36.0449 36.0449C29.9414 42.1484 20.0488 42.1484 13.9453 36.0449C7.8418 29.9414 7.8418 20.0488 13.9453 13.9453C20.0488 7.8418 29.9414 7.8418 36.0449 13.9453L37.7246 15.625Z" fill="black"/>
</svg>
